<svg width="30" height="30" viewBox="0 0 30 30" fill="none" xmlns="http://www.w3.org/2000/svg">
<g clip-path="url(#clip0)">
<path d="M9.27588 26.6666C7.19064 27.8705 4.58409 26.3656 4.58409 23.9578L4.58409 5.20824C4.58409 2.80041 7.19064 1.29552 9.27588 2.49944L25.5134 11.8742C27.5987 13.0781 27.5987 16.0879 25.5134 17.2918L9.27588 26.6666Z" fill="url(#paint0_linear)"/>
<path d="M9.33583 15.0401C9.81005 15.4783 10.3513 15.8232 10.945 16.0757C11.5387 16.3282 12.1293 16.5366 12.7156 16.6864C13.3019 16.8361 13.885 16.9418 14.4357 17.0055C14.9863 17.0693 15.4771 17.1225 15.8935 17.1664C16.3256 17.2239 16.7567 17.2668 17.172 17.2959C17.5873 17.3251 17.9449 17.3732 18.2596 17.4392C18.2596 17.4392 23.7772 17.825 24.1931 21.7649C24.3105 21.5499 24.4268 21.3202 24.5127 21.0779C24.8511 20.2419 24.9724 19.2592 24.8922 18.1433C24.8068 16.9541 24.5001 15.9726 23.9586 15.2145C23.4319 14.4555 22.7982 13.8516 22.0586 13.4178C21.318 12.9692 20.5429 12.6559 19.7321 12.4633C18.9067 12.2717 18.1588 12.1336 17.4886 12.0489C17.3555 12.0437 17.0576 12.0061 16.5825 11.9664C16.1063 11.9121 15.6134 11.8294 15.1037 11.7185C14.5939 11.6075 14.1261 11.464 13.7296 11.2859C13.3184 11.1088 13.1107 10.8876 13.0917 10.6234C13.0727 10.3591 13.1314 10.1483 13.2823 9.98984C13.4333 9.83142 13.6167 9.71493 13.8611 9.62359C14.0918 9.54799 14.3529 9.48496 14.6161 9.45129C14.8793 9.41762 15.1289 9.39969 15.3345 9.38492C16.0245 9.33535 16.7828 9.41369 17.6229 9.60422C18.4631 9.79475 23.1544 10.6486 24.152 11.182C24.3073 11.289 24.4855 11.3057 24.6596 11.2636C24.8473 11.2059 24.9878 11.1072 25.08 10.953L27.0304 7.69901C27.1373 7.54375 27.1687 7.3644 27.1414 7.18927C27.113 6.99946 27.0144 6.85896 26.858 6.73737C25.6642 5.93767 20.6477 4.87101 19.367 4.50552C18.1021 4.15366 16.6904 4.01895 15.1341 4.13076C14.2385 4.1951 13.3209 4.36432 12.395 4.6227C11.469 4.88107 10.6134 5.29673 9.87006 5.83714C9.12778 6.39223 8.54391 7.09828 8.10484 7.97103C7.66577 8.84377 7.49212 9.91881 7.58494 11.2108C7.64823 12.0918 7.83416 12.831 8.15953 13.457C8.47022 14.084 8.86267 14.6166 9.33583 15.0401Z" fill="url(#paint1_linear)"/>
<path d="M17.8301 17.4153C18.1434 17.4808 18.3993 17.5771 18.5834 17.705C18.7821 17.8322 18.8802 18.0064 18.8925 18.2268C18.917 18.6676 18.7142 18.9967 18.3002 19.2409C17.8863 19.485 17.2604 19.6303 16.4521 19.6753C15.5996 19.7227 14.6637 19.5951 13.6598 19.3055C12.656 19.0159 3.15809 15.4003 2.1095 14.8367C1.95793 14.7623 1.78003 14.7445 1.6052 14.7819C1.41643 14.8338 1.27406 14.9247 1.17884 15.0682L-0.819214 18.1089C-0.92913 18.2532 -0.964027 18.4209 -0.939369 18.5992C-0.914711 18.7775 -0.818099 18.9241 -0.665764 19.0124C-0.129141 19.3833 8.93716 22.9261 9.58906 23.2492C10.2263 23.573 10.92 23.8523 11.6694 24.0731C12.4041 24.2948 13.2093 24.4573 14.0554 24.5623C14.9016 24.6672 15.8167 24.6854 16.7867 24.6315C17.9772 24.5653 19.0579 24.3808 20.0295 24.0918C21.0012 23.8029 21.819 23.3981 22.4822 22.8637C22.9628 22.4915 23.3653 22.0408 23.6765 21.5398C23.3381 17.8413 17.8301 17.4153 17.8301 17.4153Z" fill="url(#paint2_linear)"/>
</g>
<defs>
<linearGradient id="paint0_linear" x1="7.87829" y1="-6.37603" x2="27.323" y2="33.5254" gradientUnits="userSpaceOnUse">
<stop stop-color="#4742F4"/>
<stop offset="0.909857" stop-color="#BD53FE"/>
</linearGradient>
<linearGradient id="paint1_linear" x1="13.7139" y1="7.00947" x2="-1.13849" y2="15.9096" gradientUnits="userSpaceOnUse">
<stop stop-color="white"/>
<stop offset="1" stop-color="white" stop-opacity="0"/>
</linearGradient>
<linearGradient id="paint2_linear" x1="5.48905" y1="19.8701" x2="21.152" y2="22.0853" gradientUnits="userSpaceOnUse">
<stop stop-color="white"/>
<stop offset="1" stop-color="white" stop-opacity="0"/>
</linearGradient>
<clipPath id="clip0">
<rect width="29.166" height="29.166" fill="white"/>
</clipPath>
</defs>
</svg>
